<svg width="118" height="118" viewBox="0 0 118 118" fill="none" xmlns="http://www.w3.org/2000/svg">
<path d="M49.0176 20C43.8459 20 38.886 22.0545 35.229 25.7114C31.572 29.3684 29.5176 34.3283 29.5176 39.5C29.5176 44.6717 31.572 49.6316 35.229 53.2886C38.886 56.9455 43.8459 59 49.0176 59C54.1893 59 59.1492 56.9455 62.8062 53.2886C66.4631 49.6316 68.5176 44.6717 68.5176 39.5C68.5176 34.3283 66.4631 29.3684 62.8062 25.7114C59.1492 22.0545 54.1893 20 49.0176 20ZM85.5801 63.875C73.3926 63.875 63.6426 73.625 63.6426 85.8125C63.6426 98 73.3926 107.75 85.5801 107.75C97.7676 107.75 107.518 98 107.518 85.8125C107.518 73.625 97.7676 63.875 85.5801 63.875ZM49.0176 68.75C27.4701 68.75 10.0176 77.4762 10.0176 88.25V98H56.3301C54.721 94.1382 53.8926 89.9961 53.8926 85.8125C53.9135 80.0323 55.515 74.3679 58.5238 69.4325C55.4526 69.0425 52.3326 68.75 49.0176 68.75ZM85.5801 71.1875C93.6726 71.1875 100.205 77.72 100.205 85.8125C100.205 88.5425 99.4738 91.0775 98.1576 93.125L78.2676 73.235C80.3151 71.9188 82.8501 71.1875 85.5801 71.1875ZM73.0026 78.5L92.8926 98.39C90.8451 99.7063 88.3101 100.438 85.5801 100.438C77.4876 100.438 70.9551 93.905 70.9551 85.8125C70.9551 83.0825 71.6863 80.5475 73.0026 78.5Z" fill="white" fill-opacity="0.5"/>
</svg>
