<svg width="75" height="75" viewBox="0 0 75 75" fill="none" xmlns="http://www.w3.org/2000/svg">
<path fill-rule="evenodd" clip-rule="evenodd" d="M22.0398 0.225C26.0386 0.040909 27.3136 0 37.5 0C47.6864 0 48.9614 0.0443181 52.9568 0.225C56.9523 0.405682 59.6795 1.04318 62.0659 1.96705C64.5648 2.91136 66.8318 4.3875 68.7068 6.29659C70.6159 8.16818 72.0886 10.4318 73.0296 12.9341C73.9568 15.3205 74.5909 18.0477 74.775 22.0364C74.9591 26.042 75 27.317 75 37.5C75 47.6864 74.9557 48.9614 74.775 52.9602C74.5943 56.9489 73.9568 59.6761 73.0296 62.0625C72.0886 64.5651 70.6135 66.8325 68.7068 68.7068C66.8318 70.6159 64.5648 72.0886 62.0659 73.0296C59.6795 73.9568 56.9523 74.5909 52.9636 74.775C48.9614 74.9591 47.6864 75 37.5 75C27.3136 75 26.0386 74.9557 22.0398 74.775C18.0511 74.5943 15.3239 73.9568 12.9375 73.0296C10.435 72.0885 8.16757 70.6134 6.29318 68.7068C4.38539 66.8341 2.90903 64.5678 1.96705 62.0659C1.04318 59.6795 0.409091 56.9523 0.225 52.9636C0.040909 48.958 0 47.683 0 37.5C0 27.3136 0.0443181 26.0386 0.225 22.0432C0.405682 18.0477 1.04318 15.3205 1.96705 12.9341C2.91042 10.4321 4.3879 8.16584 6.29659 6.29318C8.16832 4.3858 10.4334 2.90947 12.9341 1.96705C15.3205 1.04318 18.0477 0.409091 22.0364 0.225H22.0398ZM52.6534 6.975C48.6989 6.79432 47.5125 6.75682 37.5 6.75682C27.4875 6.75682 26.3011 6.79432 22.3466 6.975C18.6886 7.14205 16.7045 7.75227 15.3818 8.26705C13.633 8.94886 12.3818 9.75682 11.0693 11.0693C9.82515 12.2797 8.86766 13.7532 8.26705 15.3818C7.75227 16.7045 7.14205 18.6886 6.975 22.3466C6.79432 26.3011 6.75682 27.4875 6.75682 37.5C6.75682 47.5125 6.79432 48.6989 6.975 52.6534C7.14205 56.3114 7.75227 58.2955 8.26705 59.6182C8.86705 61.2443 9.825 62.7205 11.0693 63.9307C12.2795 65.175 13.7557 66.133 15.3818 66.733C16.7045 67.2477 18.6886 67.858 22.3466 68.025C26.3011 68.2057 27.4841 68.2432 37.5 68.2432C47.5159 68.2432 48.6989 68.2057 52.6534 68.025C56.3114 67.858 58.2955 67.2477 59.6182 66.733C61.3671 66.0511 62.6182 65.2432 63.9307 63.9307C65.175 62.7205 66.133 61.2443 66.733 59.6182C67.2477 58.2955 67.858 56.3114 68.025 52.6534C68.2057 48.6989 68.2432 47.5125 68.2432 37.5C68.2432 27.4875 68.2057 26.3011 68.025 22.3466C67.858 18.6886 67.2477 16.7045 66.733 15.3818C66.0511 13.633 65.2432 12.3818 63.9307 11.0693C62.7202 9.82524 61.2467 8.86776 59.6182 8.26705C58.2955 7.75227 56.3114 7.14205 52.6534 6.975V6.975ZM32.7102 49.0602C35.3852 50.1737 38.3638 50.324 41.1373 49.4854C43.9107 48.6468 46.307 46.8713 47.9169 44.4622C49.5267 42.0531 50.2502 39.1598 49.9638 36.2765C49.6774 33.3932 48.3989 30.6988 46.3466 28.6534C45.0383 27.3459 43.4564 26.3448 41.7148 25.7221C39.9731 25.0994 38.1151 24.8705 36.2744 25.0521C34.4337 25.2337 32.6562 25.8211 31.0698 26.772C29.4834 27.723 28.1275 29.0139 27.0999 30.5518C26.0723 32.0896 25.3984 33.8362 25.1268 35.6658C24.8551 37.4953 24.9926 39.3624 25.5291 41.1324C26.0657 42.9025 26.988 44.5316 28.2297 45.9025C29.4715 47.2733 31.0017 48.3518 32.7102 49.0602ZM23.8705 23.8705C25.6603 22.0806 27.7852 20.6608 30.1237 19.6921C32.4623 18.7235 34.9688 18.2249 37.5 18.2249C40.0312 18.2249 42.5377 18.7235 44.8763 19.6921C47.2148 20.6608 49.3397 22.0806 51.1295 23.8705C52.9194 25.6603 54.3392 27.7852 55.3079 30.1237C56.2765 32.4623 56.7751 34.9688 56.7751 37.5C56.7751 40.0312 56.2765 42.5377 55.3079 44.8763C54.3392 47.2148 52.9194 49.3397 51.1295 51.1295C47.5148 54.7443 42.6121 56.7751 37.5 56.7751C32.3879 56.7751 27.4852 54.7443 23.8705 51.1295C20.2557 47.5148 18.2249 42.6121 18.2249 37.5C18.2249 32.3879 20.2557 27.4852 23.8705 23.8705V23.8705ZM61.05 21.0955C61.4935 20.6771 61.8486 20.1739 62.0942 19.6158C62.3398 19.0577 62.4709 18.456 62.4798 17.8464C62.4887 17.2367 62.3752 16.6314 62.146 16.0664C61.9167 15.5014 61.5765 14.9881 61.1453 14.557C60.7142 14.1258 60.2009 13.7855 59.6359 13.5563C59.0709 13.3271 58.4656 13.2136 57.8559 13.2224C57.2462 13.2313 56.6445 13.3625 56.0865 13.6081C55.5284 13.8537 55.0252 14.2087 54.6068 14.6523C53.7931 15.5149 53.3476 16.6606 53.3649 17.8464C53.3822 19.0321 53.8609 20.1644 54.6994 21.0029C55.5379 21.8414 56.6702 22.3201 57.8559 22.3374C59.0416 22.3547 60.1874 21.9092 61.05 21.0955V21.0955Z" fill="white"/>
</svg>
