<svg width="49" height="38" viewBox="0 0 49 38" fill="none" xmlns="http://www.w3.org/2000/svg">
<path d="M48.5 5.20457C46.7348 5.94429 44.8386 6.44411 42.8451 6.67002C44.902 5.50604 46.4409 3.67406 47.1745 1.51593C45.242 2.60151 43.127 3.36564 40.9214 3.77509C39.4382 2.27738 37.4736 1.28467 35.3327 0.951087C33.1918 0.617506 30.9943 0.961718 29.0815 1.93028C27.1686 2.89885 25.6474 4.43757 24.754 6.30756C23.8606 8.17756 23.645 10.2742 24.1406 12.2719C20.2249 12.086 16.3942 11.1235 12.8973 9.44681C9.40032 7.77014 6.31522 5.41681 3.8422 2.53955C2.99661 3.91904 2.51039 5.51845 2.51039 7.22182C2.50945 8.75524 2.90874 10.2652 3.67283 11.6177C4.43691 12.9701 5.54218 14.1233 6.89056 14.9749C5.3268 14.9279 3.79754 14.5283 2.43006 13.8094V13.9293C2.4299 16.08 3.21653 18.1645 4.65647 19.8291C6.09641 21.4938 8.10096 22.636 10.33 23.062C8.87935 23.4333 7.35846 23.4879 5.88219 23.2219C6.51109 25.0724 7.73614 26.6907 9.38583 27.85C11.0355 29.0094 13.0273 29.6519 15.0822 29.6875C11.5938 32.2774 7.28563 33.6822 2.85074 33.676C2.06515 33.6762 1.28022 33.6328 0.5 33.5461C5.00167 36.2834 10.2419 37.7362 15.5938 37.7305C33.7106 37.7305 43.6146 23.5398 43.6146 11.2323C43.6146 10.8325 43.604 10.4286 43.585 10.0288C45.5115 8.71122 47.1743 7.07966 48.4958 5.21056L48.5 5.20457Z" fill="white"/>
</svg>
