<svg width="42" height="42" viewBox="0 0 42 42" fill="none" xmlns="http://www.w3.org/2000/svg">
<path d="M22.3519 2.64609C21.902 2.61323 21.4511 2.59678 21 2.59675V0C21.5159 0.00024884 22.0316 0.0193046 22.5461 0.0571285L22.3519 2.64609ZM27.6124 3.81463C26.7709 3.49342 25.9067 3.23391 25.0268 3.0382L25.6016 0.503769C26.607 0.72709 27.5966 1.02312 28.5574 1.39186L27.6124 3.81463V3.81463ZM31.2086 5.65832C30.8333 5.41072 30.4489 5.17685 30.0562 4.9572L31.3504 2.69802C32.2479 3.20111 33.1068 3.76872 33.9202 4.3963L32.3059 6.44513C31.95 6.17048 31.584 5.90889 31.2086 5.66091V5.65832ZM36.0229 10.3065C35.5036 9.57675 34.9307 8.88587 34.3087 8.23949L36.2092 6.44773C36.918 7.1878 37.5743 7.97981 38.1701 8.81077L36.0229 10.3065V10.3065ZM37.9759 13.8173C37.8036 13.4056 37.6162 13.0003 37.4141 12.602L39.7582 11.4335C40.2218 12.3452 40.6166 13.2895 40.9395 14.2588L38.4457 15.0715C38.3047 14.6479 38.148 14.2296 37.9759 13.8173V13.8173ZM39.3671 20.3274C39.3459 19.435 39.2582 18.5453 39.1046 17.6657L41.6902 17.2242C41.8661 18.2266 41.9685 19.2445 41.9948 20.2624L39.3698 20.3274H39.3671ZM39.0233 24.3212C39.1099 23.8797 39.1807 23.4409 39.2359 22.9968L41.8425 23.3162C41.7164 24.3293 41.5146 25.3318 41.2388 26.3155L38.7083 25.6221C38.829 25.1937 38.934 24.76 39.0233 24.3212V24.3212ZM36.5242 30.4988C37.0072 29.7458 37.4325 28.9564 37.8 28.141L40.1993 29.1927C39.7793 30.1275 39.2936 31.026 38.7424 31.8881L36.5242 30.4988ZM33.9937 33.6279C34.314 33.3111 34.6211 32.9839 34.9125 32.6463L36.9022 34.342C36.5653 34.7285 36.2142 35.1027 35.8496 35.4638L33.9937 33.6279V33.6279Z" fill="white"/>
<path d="M21.0004 2.59675C17.9787 2.59697 15.0037 3.33435 12.3389 4.74358C9.67407 6.15282 7.4017 8.19041 5.72304 10.6759C4.04438 13.1614 3.01125 16.018 2.71515 18.9928C2.41905 21.9676 2.86912 24.9687 4.0255 27.7303C5.18188 30.4919 7.00888 32.9288 9.34467 34.8251C11.6805 36.7215 14.4529 38.0187 17.4166 38.6019C20.3802 39.1851 23.4435 39.0363 26.3351 38.1687C29.2267 37.3011 31.8574 35.7415 33.9941 33.6279L35.85 35.4638C33.4081 37.8808 30.4012 39.6647 27.0957 40.6573C23.7903 41.6499 20.2884 41.8207 16.9003 41.1545C13.5122 40.4883 10.3425 39.0057 7.67208 36.8381C5.00164 34.6704 2.91292 31.8846 1.59097 28.7276C0.269013 25.5705 -0.245348 22.1396 0.0934545 18.7388C0.432257 15.3381 1.61376 12.0725 3.53329 9.23149C5.45282 6.39044 8.05109 4.0616 11.0979 2.45134C14.1447 0.841075 17.546 -0.00090557 21.0004 7.30877e-07V2.59675Z" fill="white"/>
<path d="M19.6875 7.79102C20.0356 7.79102 20.3694 7.92781 20.6156 8.1713C20.8617 8.41479 21 8.74504 21 9.08939V22.6185L29.526 27.438C29.8195 27.6131 30.032 27.8949 30.1183 28.223C30.2045 28.5511 30.1576 28.8996 29.9876 29.1939C29.8176 29.4883 29.5379 29.7052 29.2083 29.7983C28.8788 29.8913 28.5255 29.8532 28.224 29.692L19.0365 24.4985C18.8356 24.385 18.6686 24.221 18.5525 24.0231C18.4363 23.8251 18.3751 23.6004 18.375 23.3715V9.08939C18.375 8.74504 18.5133 8.41479 18.7594 8.1713C19.0056 7.92781 19.3394 7.79102 19.6875 7.79102V7.79102Z" fill="white"/>
</svg>
