<svg width="258" height="97" viewBox="0 0 258 97" fill="none" xmlns="http://www.w3.org/2000/svg">
<path d="M91.4501 74V21.6235H101.028V74H91.4501ZM107.812 74L126.967 21.6235H137.741L156.896 74H146.72L142.53 61.8786H122.103L117.838 74H107.812ZM124.722 54.3962H139.911L132.279 32.6226L124.722 54.3962ZM163.643 74V21.6235H182.873C187.063 21.6235 190.505 22.3468 193.198 23.7934C195.942 25.1901 197.987 27.1106 199.334 29.5548C200.681 31.9492 201.354 34.6179 201.354 37.5609C201.354 40.7534 200.506 43.6715 198.81 46.3153C197.164 48.9591 194.57 50.8795 191.029 52.0767L201.878 74H190.879L181.152 53.3487H173.221V74H163.643ZM173.221 46.3153H182.274C185.467 46.3153 187.811 45.5421 189.308 43.9958C190.804 42.4494 191.552 40.4042 191.552 37.8602C191.552 35.3661 190.804 33.3708 189.308 31.8743C187.861 30.3779 185.492 29.6296 182.199 29.6296H173.221V46.3153ZM206.895 74L226.049 21.6235H236.824L255.979 74H245.803L241.613 61.8786H221.186L216.921 74H206.895ZM223.805 54.3962H238.994L231.362 32.6226L223.805 54.3962Z" fill="white"/>
<path d="M34.4771 54.8656C33.4764 52.3103 33.0588 50.8673 32.5802 48.2283C32.1928 44.8943 32.1133 42.999 32.3923 39.5392C32.9285 35.5222 33.4657 33.5994 34.6076 30.4253C35.3692 28.5923 36.1617 27.7438 36.5045 25.8372C36.887 23.7098 36.943 22.4002 36.1627 20.3139C34.8743 17.6989 33.7048 16.5096 30.6703 14.9746C28.0462 13.9929 26.5189 13.7843 23.6645 14.2078C22.058 14.566 21.2219 14.9351 19.8133 15.8088C19.0715 16.5699 18.8148 16.9625 18.4617 17.6404C17.8642 19.0312 17.6517 19.8128 17.5224 21.2077C17.2032 23.8891 17.2314 25.4559 17.6737 28.3709C18.5106 32.142 19.3149 34.3497 21.1153 38.389C23.1581 42.1849 24.5819 44.2099 27.7036 47.6039C30.5735 50.1027 32.0794 51.6584 34.4771 54.8656Z" fill="url(#paint0_radial_2977_2588)"/>
<path d="M19.8133 15.8088C16.8924 17.3973 15.381 18.6819 12.9145 21.6896C10.4847 25.1301 9.43687 27.0383 7.81873 30.4253C6.26963 33.7986 5.52963 35.741 4.37195 39.2698C3.34752 42.4784 2.85897 44.2915 2.1489 47.5469C1.31439 51.5378 0.968297 53.7886 0.489435 57.8189C-0.0586505 62.8498 -0.0844245 65.692 0.111099 70.78C0.392987 74.5013 0.71303 76.5504 1.61923 80.1296C1.93305 81.3506 2.1538 82.0313 2.68118 83.2333C2.85076 83.538 3.02119 83.6781 3.39089 83.9016C4.22918 84.0439 4.92315 84.0212 6.33408 83.9016C10.5816 82.9833 13.1799 81.881 18.146 79.0183C22.5325 76.4751 24.8234 74.7891 28.7421 71.5235C31.5034 69.0409 32.8576 67.6583 34.832 65.1919C36.1421 63.3972 36.6877 62.4133 37.1333 60.7204C37.2892 60.1598 37.2978 59.7744 37.1333 58.9251C36.0663 57.0695 35.491 56.1701 34.4771 54.8656C32.0794 51.6584 30.5735 50.1027 27.7036 47.6039C24.5819 44.2099 23.1581 42.1849 21.1153 38.389C19.3149 34.3497 18.5106 32.142 17.6737 28.3709C17.2314 25.4559 17.2032 23.8891 17.5224 21.2077C17.6517 19.8128 17.8642 19.0312 18.4617 17.6404C18.8148 16.9625 19.0715 16.5699 19.8133 15.8088Z" fill="url(#paint1_radial_2977_2588)"/>
<path d="M41.5229 54.8656C42.5236 52.3103 42.9412 50.8673 43.4198 48.2283C43.8072 44.8943 43.8867 42.999 43.6077 39.5392C43.0715 35.5222 42.5343 33.5994 41.3924 30.4253C40.6308 28.5923 39.8383 27.7438 39.4955 25.8372C39.113 23.7098 39.057 22.4002 39.8373 20.3139C41.1257 17.6989 42.2952 16.5096 45.3297 14.9746C47.9538 13.9929 49.4811 13.7843 52.3355 14.2078C53.942 14.566 54.7781 14.9351 56.1867 15.8088C56.9285 16.5699 57.1852 16.9625 57.5383 17.6404C58.1358 19.0312 58.3483 19.8128 58.4776 21.2077C58.7968 23.8891 58.7686 25.4559 58.3263 28.3709C57.4894 32.142 56.6851 34.3497 54.8847 38.389C52.8419 42.1849 51.4181 44.2099 48.2964 47.6039C45.4265 50.1027 43.9206 51.6584 41.5229 54.8656Z" fill="url(#paint2_radial_2977_2588)"/>
<path d="M56.1867 15.8088C59.1076 17.3973 60.619 18.6819 63.0855 21.6896C65.5153 25.1301 66.5631 27.0383 68.1813 30.4253C69.7304 33.7986 70.4704 35.741 71.628 39.2698C72.6525 42.4784 73.141 44.2915 73.8511 47.5469C74.6856 51.5378 75.0317 53.7886 75.5106 57.8189C76.0587 62.8498 76.0844 65.692 75.8889 70.78C75.607 74.5013 75.287 76.5504 74.3808 80.1296C74.0669 81.3506 73.8462 82.0313 73.3188 83.2333C73.1492 83.538 72.9788 83.6781 72.6091 83.9016C71.7708 84.0439 71.0769 84.0212 69.6659 83.9016C65.4184 82.9833 62.8201 81.881 57.854 79.0183C53.4675 76.4751 51.1766 74.7891 47.2579 71.5235C44.4966 69.0409 43.1424 67.6583 41.168 65.1919C39.8579 63.3972 39.3123 62.4133 38.8667 60.7204C38.7108 60.1598 38.7022 59.7744 38.8667 58.9251C39.9337 57.0695 40.509 56.1701 41.5229 54.8656C43.9206 51.6584 45.4265 50.1027 48.2964 47.6039C51.4181 44.2099 52.8419 42.1849 54.8847 38.389C56.6851 34.3497 57.4894 32.142 58.3263 28.3709C58.7686 25.4559 58.7968 23.8891 58.4776 21.2077C58.3483 19.8128 58.1358 19.0312 57.5383 17.6404C57.1852 16.9625 56.9285 16.5699 56.1867 15.8088Z" fill="url(#paint3_radial_2977_2588)"/>
<defs>
<radialGradient id="paint0_radial_2977_2588" cx="0" cy="0" r="1" gradientUnits="userSpaceOnUse" gradientTransform="translate(26.0483 33.7411) rotate(69.3964) scale(21.09 11.2043)">
<stop stop-color="#01858A"/>
<stop offset="0.479167" stop-color="#018D93"/>
<stop offset="0.942708" stop-color="#00969D"/>
</radialGradient>
<radialGradient id="paint1_radial_2977_2588" cx="0" cy="0" r="1" gradientUnits="userSpaceOnUse" gradientTransform="translate(18.6267 49) rotate(90) scale(35 18.6267)">
<stop stop-color="#17CCD5"/>
<stop offset="0.536458" stop-color="#13C6CF"/>
<stop offset="1" stop-color="#02ADB5" stop-opacity="0.84"/>
</radialGradient>
<radialGradient id="paint2_radial_2977_2588" cx="0" cy="0" r="1" gradientUnits="userSpaceOnUse" gradientTransform="translate(49.9517 33.7411) rotate(110.604) scale(21.09 11.2043)">
<stop stop-color="#01858A"/>
<stop offset="0.479167" stop-color="#018D93"/>
<stop offset="0.942708" stop-color="#00969D"/>
</radialGradient>
<radialGradient id="paint3_radial_2977_2588" cx="0" cy="0" r="1" gradientUnits="userSpaceOnUse" gradientTransform="translate(57.3733 49) rotate(90) scale(35 18.6267)">
<stop stop-color="#17CCD5"/>
<stop offset="0.536458" stop-color="#13C6CF"/>
<stop offset="1" stop-color="#02ADB5" stop-opacity="0.84"/>
</radialGradient>
</defs>
</svg>
