<svg width="76" height="70" viewBox="0 0 76 70" fill="none" xmlns="http://www.w3.org/2000/svg">
<path d="M34.4771 40.8656C33.4764 38.3103 33.0588 36.8673 32.5802 34.2283C32.1928 30.8943 32.1133 28.999 32.3923 25.5392C32.9285 21.5222 33.4657 19.5994 34.6076 16.4253C35.3692 14.5923 36.1617 13.7438 36.5045 11.8372C36.887 9.70978 36.943 8.40024 36.1627 6.31395C34.8743 3.69889 33.7048 2.50965 30.6703 0.974601C28.0462 -0.00706718 26.5189 -0.215734 23.6645 0.207766C22.058 0.566005 21.2219 0.935103 19.8133 1.80879C19.0715 2.56985 18.8148 2.96255 18.4617 3.64039C17.8642 5.03119 17.6517 5.81281 17.5224 7.20773C17.2032 9.88907 17.2314 11.4559 17.6737 14.3709C18.5106 18.142 19.3149 20.3497 21.1153 24.389C23.1581 28.1849 24.5819 30.2099 27.7036 33.6039C30.5735 36.1027 32.0794 37.6584 34.4771 40.8656Z" fill="url(#paint0_radial_3166_3751)"/>
<path d="M19.8133 1.80879C16.8924 3.39729 15.381 4.68189 12.9145 7.68959C10.4847 11.1301 9.43687 13.0383 7.81873 16.4253C6.26963 19.7986 5.52963 21.741 4.37195 25.2698C3.34752 28.4784 2.85897 30.2915 2.1489 33.5469C1.31439 37.5378 0.968297 39.7886 0.489435 43.8189C-0.0586505 48.8498 -0.0844245 51.692 0.111099 56.78C0.392987 60.5013 0.71303 62.5504 1.61923 66.1296C1.93305 67.3506 2.1538 68.0313 2.68118 69.2333C2.85076 69.538 3.02119 69.6781 3.39089 69.9016C4.22918 70.0439 4.92315 70.0212 6.33408 69.9016C10.5816 68.9833 13.1799 67.881 18.146 65.0183C22.5325 62.4751 24.8234 60.7891 28.7421 57.5235C31.5034 55.0409 32.8576 53.6583 34.832 51.1919C36.1421 49.3972 36.6877 48.4133 37.1333 46.7204C37.2892 46.1598 37.2978 45.7744 37.1333 44.9251C36.0663 43.0695 35.491 42.1701 34.4771 40.8656C32.0794 37.6584 30.5735 36.1027 27.7036 33.6039C24.5819 30.2099 23.1581 28.1849 21.1153 24.389C19.3149 20.3497 18.5106 18.142 17.6737 14.3709C17.2314 11.4559 17.2032 9.88907 17.5224 7.20773C17.6517 5.81281 17.8642 5.03119 18.4617 3.64039C18.8148 2.96255 19.0715 2.56985 19.8133 1.80879Z" fill="url(#paint1_radial_3166_3751)"/>
<path d="M41.5229 40.8656C42.5236 38.3103 42.9412 36.8673 43.4198 34.2283C43.8072 30.8943 43.8867 28.999 43.6077 25.5392C43.0715 21.5222 42.5343 19.5994 41.3924 16.4253C40.6308 14.5923 39.8383 13.7438 39.4955 11.8372C39.113 9.70978 39.057 8.40024 39.8373 6.31395C41.1257 3.69889 42.2952 2.50965 45.3297 0.974601C47.9538 -0.00706718 49.4811 -0.215734 52.3355 0.207766C53.942 0.566005 54.7781 0.935103 56.1867 1.80879C56.9285 2.56985 57.1852 2.96255 57.5383 3.64039C58.1358 5.03119 58.3483 5.81281 58.4776 7.20773C58.7968 9.88907 58.7686 11.4559 58.3263 14.3709C57.4894 18.142 56.6851 20.3497 54.8847 24.389C52.8419 28.1849 51.4181 30.2099 48.2964 33.6039C45.4265 36.1027 43.9206 37.6584 41.5229 40.8656Z" fill="url(#paint2_radial_3166_3751)"/>
<path d="M56.1867 1.80879C59.1076 3.39729 60.619 4.68189 63.0855 7.68959C65.5153 11.1301 66.5631 13.0383 68.1813 16.4253C69.7304 19.7986 70.4704 21.741 71.628 25.2698C72.6525 28.4784 73.141 30.2915 73.8511 33.5469C74.6856 37.5378 75.0317 39.7886 75.5106 43.8189C76.0587 48.8498 76.0844 51.692 75.8889 56.78C75.607 60.5013 75.287 62.5504 74.3808 66.1296C74.0669 67.3506 73.8462 68.0313 73.3188 69.2333C73.1492 69.538 72.9788 69.6781 72.6091 69.9016C71.7708 70.0439 71.0769 70.0212 69.6659 69.9016C65.4184 68.9833 62.8201 67.881 57.854 65.0183C53.4675 62.4751 51.1766 60.7891 47.2579 57.5235C44.4966 55.0409 43.1424 53.6583 41.168 51.1919C39.8579 49.3972 39.3123 48.4133 38.8667 46.7204C38.7108 46.1598 38.7022 45.7744 38.8667 44.9251C39.9337 43.0695 40.509 42.1701 41.5229 40.8656C43.9206 37.6584 45.4265 36.1027 48.2964 33.6039C51.4181 30.2099 52.8419 28.1849 54.8847 24.389C56.6851 20.3497 57.4894 18.142 58.3263 14.3709C58.7686 11.4559 58.7968 9.88907 58.4776 7.20773C58.3483 5.81281 58.1358 5.03119 57.5383 3.64039C57.1852 2.96255 56.9285 2.56985 56.1867 1.80879Z" fill="url(#paint3_radial_3166_3751)"/>
<defs>
<radialGradient id="paint0_radial_3166_3751" cx="0" cy="0" r="1" gradientUnits="userSpaceOnUse" gradientTransform="translate(26.0483 19.7411) rotate(69.3964) scale(21.09 11.2043)">
<stop stop-color="#01858A"/>
<stop offset="0.479167" stop-color="#018D93"/>
<stop offset="0.942708" stop-color="#00969D"/>
</radialGradient>
<radialGradient id="paint1_radial_3166_3751" cx="0" cy="0" r="1" gradientUnits="userSpaceOnUse" gradientTransform="translate(18.6267 35) rotate(90) scale(35 18.6267)">
<stop stop-color="#17CCD5"/>
<stop offset="0.536458" stop-color="#13C6CF"/>
<stop offset="1" stop-color="#02ADB5" stop-opacity="0.84"/>
</radialGradient>
<radialGradient id="paint2_radial_3166_3751" cx="0" cy="0" r="1" gradientUnits="userSpaceOnUse" gradientTransform="translate(49.9517 19.7411) rotate(110.604) scale(21.09 11.2043)">
<stop stop-color="#01858A"/>
<stop offset="0.479167" stop-color="#018D93"/>
<stop offset="0.942708" stop-color="#00969D"/>
</radialGradient>
<radialGradient id="paint3_radial_3166_3751" cx="0" cy="0" r="1" gradientUnits="userSpaceOnUse" gradientTransform="translate(57.3733 35) rotate(90) scale(35 18.6267)">
<stop stop-color="#17CCD5"/>
<stop offset="0.536458" stop-color="#13C6CF"/>
<stop offset="1" stop-color="#02ADB5" stop-opacity="0.84"/>
</radialGradient>
</defs>
</svg>
