<svg width="33" height="30" viewBox="0 0 33 30" fill="none" xmlns="http://www.w3.org/2000/svg">
<path d="M15.1301 17.5138C14.7054 16.4187 14.5282 15.8003 14.3252 14.6693C14.1607 13.2404 14.127 12.4281 14.2454 10.9454C14.4729 9.22381 14.7009 8.39973 15.1854 7.03941C15.5086 6.25383 15.8449 5.8902 15.9904 5.0731C16.1527 4.16133 16.1765 3.6001 15.8453 2.70598C15.2986 1.58524 14.8024 1.07556 13.5147 0.417686C12.4012 -0.00302879 11.7531 -0.0924576 10.5418 0.0890426C9.86015 0.242573 9.50534 0.400759 8.90762 0.775197C8.59283 1.10137 8.4839 1.26966 8.33409 1.56017C8.08052 2.15623 7.99035 2.4912 7.9355 3.08903C7.80003 4.23817 7.81201 4.90966 7.99971 6.15895C8.35483 7.77514 8.69612 8.7213 9.46011 10.4524C10.327 12.0793 10.9312 12.9471 12.2558 14.4017C13.4736 15.4726 14.1127 16.1393 15.1301 17.5138Z" fill="url(#paint0_radial_3128_6838)"/>
<path d="M8.90762 0.775197C7.66817 1.45598 7.02679 2.00652 5.98018 3.29554C4.94909 4.77002 4.50446 5.58784 3.81782 7.03941C3.16047 8.48513 2.84645 9.31756 2.3552 10.8299C1.92049 12.205 1.71318 12.9821 1.41187 14.3773C1.05775 16.0876 0.910889 17.0523 0.707688 18.7795C0.475112 20.9356 0.464175 22.1537 0.547144 24.3343C0.666761 25.9291 0.802568 26.8073 1.18711 28.3413C1.32028 28.8646 1.41395 29.1563 1.63774 29.6714C1.7097 29.802 1.78202 29.8621 1.9389 29.9578C2.29462 30.0188 2.5891 30.0091 3.18782 29.9578C4.9902 29.5643 6.09278 29.0919 8.20012 27.865C10.0615 26.775 11.0336 26.0525 12.6965 24.6529C13.8682 23.589 14.4429 22.9964 15.2807 21.9394C15.8366 21.1702 16.0681 20.7486 16.2572 20.023C16.3234 19.7828 16.327 19.6176 16.2572 19.2536C15.8044 18.4584 15.5603 18.0729 15.1301 17.5138C14.1127 16.1393 13.4736 15.4726 12.2558 14.4017C10.9312 12.9471 10.327 12.0793 9.46011 10.4524C8.69612 8.7213 8.35483 7.77514 7.99971 6.15895C7.81201 4.90966 7.80003 4.23817 7.9355 3.08903C7.99035 2.4912 8.08052 2.15623 8.33409 1.56017C8.4839 1.26966 8.59283 1.10137 8.90762 0.775197Z" fill="url(#paint1_radial_3128_6838)"/>
<path d="M18.1199 17.5138C18.5446 16.4187 18.7218 15.8003 18.9248 14.6693C19.0893 13.2404 19.123 12.4281 19.0046 10.9454C18.7771 9.22381 18.5491 8.39973 18.0646 7.03941C17.7414 6.25383 17.4051 5.8902 17.2596 5.0731C17.0973 4.16133 17.0735 3.6001 17.4047 2.70598C17.9514 1.58524 18.4476 1.07556 19.7353 0.417686C20.8488 -0.00302879 21.4969 -0.0924576 22.7082 0.0890426C23.3898 0.242573 23.7447 0.400759 24.3424 0.775197C24.6572 1.10137 24.7661 1.26966 24.9159 1.56017C25.1695 2.15623 25.2597 2.4912 25.3145 3.08903C25.45 4.23817 25.438 4.90966 25.2503 6.15895C24.8952 7.77514 24.5539 8.7213 23.7899 10.4524C22.923 12.0793 22.3188 12.9471 20.9942 14.4017C19.7764 15.4726 19.1373 16.1393 18.1199 17.5138Z" fill="url(#paint2_radial_3128_6838)"/>
<path d="M24.3424 0.775197C25.5818 1.45598 26.2232 2.00652 27.2698 3.29554C28.3009 4.77002 28.7455 5.58784 29.4322 7.03941C30.0895 8.48513 30.4035 9.31756 30.8948 10.8299C31.3295 12.205 31.5368 12.9821 31.8381 14.3773C32.1922 16.0876 32.3391 17.0523 32.5423 18.7795C32.7749 20.9356 32.7858 22.1537 32.7029 24.3343C32.5832 25.9291 32.4474 26.8073 32.0629 28.3413C31.9297 28.8646 31.8361 29.1563 31.6123 29.6714C31.5403 29.802 31.468 29.8621 31.3111 29.9578C30.9554 30.0188 30.6609 30.0091 30.0622 29.9578C28.2598 29.5643 27.1572 29.0919 25.0499 27.865C23.1885 26.775 22.2164 26.0525 20.5535 24.6529C19.3818 23.589 18.8071 22.9964 17.9693 21.9394C17.4134 21.1702 17.1819 20.7486 16.9928 20.023C16.9266 19.7828 16.923 19.6176 16.9928 19.2536C17.4456 18.4584 17.6897 18.0729 18.1199 17.5138C19.1373 16.1393 19.7764 15.4726 20.9942 14.4017C22.3188 12.9471 22.923 12.0793 23.7899 10.4524C24.5539 8.7213 24.8952 7.77514 25.2503 6.15895C25.438 4.90966 25.45 4.23817 25.3145 3.08903C25.2597 2.4912 25.1695 2.15623 24.9159 1.56017C24.7661 1.26966 24.6572 1.10137 24.3424 0.775197Z" fill="url(#paint3_radial_3128_6838)"/>
<defs>
<radialGradient id="paint0_radial_3128_6838" cx="0" cy="0" r="1" gradientUnits="userSpaceOnUse" gradientTransform="translate(11.5534 8.46046) rotate(69.5828) scale(9.02759 4.76023)">
<stop stop-color="#01858A"/>
<stop offset="0.479167" stop-color="#018D93"/>
<stop offset="0.942708" stop-color="#00969D"/>
</radialGradient>
<radialGradient id="paint1_radial_3128_6838" cx="0" cy="0" r="1" gradientUnits="userSpaceOnUse" gradientTransform="translate(8.40411 15) rotate(90) scale(15 7.90411)">
<stop stop-color="#17CCD5"/>
<stop offset="0.536458" stop-color="#13C6CF"/>
<stop offset="1" stop-color="#02ADB5" stop-opacity="0.84"/>
</radialGradient>
<radialGradient id="paint2_radial_3128_6838" cx="0" cy="0" r="1" gradientUnits="userSpaceOnUse" gradientTransform="translate(21.6966 8.46046) rotate(110.417) scale(9.02759 4.76023)">
<stop stop-color="#01858A"/>
<stop offset="0.479167" stop-color="#018D93"/>
<stop offset="0.942708" stop-color="#00969D"/>
</radialGradient>
<radialGradient id="paint3_radial_3128_6838" cx="0" cy="0" r="1" gradientUnits="userSpaceOnUse" gradientTransform="translate(24.8459 15) rotate(90) scale(15 7.90411)">
<stop stop-color="#17CCD5"/>
<stop offset="0.536458" stop-color="#13C6CF"/>
<stop offset="1" stop-color="#02ADB5" stop-opacity="0.84"/>
</radialGradient>
</defs>
</svg>
