<svg width="320" height="98" viewBox="0 0 320 98" fill="none" xmlns="http://www.w3.org/2000/svg">
<path d="M214.359 30.9259C194.172 38.5271 198.981 52.8745 214.471 52.8745C217.271 52.2188 218.111 48.8822 220.704 42.23C226.237 31.5471 236.181 32.1685 237.949 42.23V51.2075C224.671 58.6529 214.471 57.0002 202.523 67.4012C197.927 73.9883 198.132 80.05 202.523 88.0259C209.906 99.1683 224.797 98.796 239.986 88.0259C246.499 98.9121 263.327 99.34 279.49 87.4555C288.332 98.9597 305.208 99.1974 318.519 87.7407L313.622 83.9852C307.252 88.0259 301.392 85.8851 299.252 76.5693V28.9877L298.669 28.2593L271.266 32.0472V36.875C277.05 36.7411 278.636 38.1574 279.205 42.9675V75.0005C278.207 89.2144 257.86 89.4521 257.224 75.0005V42.9675C255.822 34.9871 253.016 31.94 243.38 29.1534C231.615 27.4644 225.302 27.977 214.359 30.9259Z" fill="#2E3E5F"/>
<path d="M214.471 30.884C214.433 30.8979 214.396 30.9119 214.359 30.9259M214.359 30.9259C194.172 38.5271 198.981 52.8745 214.471 52.8745C217.271 52.2188 218.111 48.8822 220.704 42.23C226.237 31.5471 236.181 32.1685 237.949 42.23V51.2075C224.671 58.6529 214.471 57.0002 202.523 67.4012C197.927 73.9883 198.132 80.05 202.523 88.0259C209.906 99.1683 224.797 98.796 239.986 88.0259C246.499 98.9121 263.327 99.34 279.49 87.4555C288.332 98.9597 305.208 99.1974 318.519 87.7407L313.622 83.9852C307.252 88.0259 301.392 85.8851 299.252 76.5693V28.9877L298.669 28.2593L271.266 32.0472V36.875C277.05 36.7411 278.636 38.1574 279.205 42.9675V75.0005C278.207 89.2144 257.86 89.4521 257.224 75.0005V42.9675C255.822 34.9871 253.016 31.94 243.38 29.1534C231.615 27.4644 225.302 27.977 214.359 30.9259Z" stroke="#2E3E5F" stroke-width="1.00014"/>
<path d="M234.613 77.556V58.0513C222.906 62.2285 215.377 66.7027 216.923 77.556C218.469 88.4093 234.613 88.2931 234.613 77.556Z" fill="#161526"/>
<path d="M62.7597 28.4704C53.8391 29.6641 35.9427 32.0515 35.7246 32.0515V37.1645C41.4419 37.0986 43.3165 38.1227 43.7314 42.1451V80.2026C44.0221 83.2474 44.4284 84.9009 45.696 87.731C54.008 100 68.2138 98.9422 85.2719 87.731L86.0449 94.9984H114.135V89.7204C107.67 89.8953 105.985 88.914 105.572 85.2905L106.048 53.1247C104.684 35.5057 128.041 33.8291 127.165 49.8961V85.2905C127.141 88.9741 125.277 89.8853 120.112 89.7204V94.9984H154.251V89.7204C149.12 89.7353 147.668 88.7082 147.429 85.2905V53.1247C146.352 35.1607 169.271 33.8775 169.271 49.8961V85.2905C169.213 88.773 167.793 89.8405 162.248 89.7204V94.9984H198.165V90.0218C191.744 89.956 189.3 88.2835 189.269 84.8199V46.6958C186.913 24.5261 163.739 23.2516 145.624 38.2736C138.556 26.5731 125.483 23.6604 105.572 37.0685V29.2743L104.684 28.5019L77.8155 32.1266V37.0685L77.8391 37.0674C80.5784 36.945 85.2719 36.7352 85.2719 42.1451V75.032C84.9808 81.8619 82.8015 83.9749 76.6184 85.7942C66.9346 86.2477 64.6417 83.3332 63.6885 75.032V29.1815L62.7597 28.4704Z" fill="#2E3E5F"/>
<path d="M199.152 90.0197C191.992 90.1179 189.302 88.4557 189.269 84.8199V46.6958C186.913 24.5261 163.739 23.2516 145.624 38.2736C138.556 26.5731 125.483 23.6604 105.572 37.0685V29.2743L104.684 28.5019L77.8155 32.1266V37.0685C80.5513 36.9462 85.2719 36.7196 85.2719 42.1451C85.2719 47.5706 85.2719 75.032 85.2719 75.032C84.9808 81.8619 82.8015 83.9749 76.6184 85.7942C66.9346 86.2477 64.6417 83.3332 63.6885 75.032V29.1815L62.7597 28.4704C53.8391 29.6641 35.9427 32.0515 35.7246 32.0515V37.1645C41.4419 37.0986 43.3165 38.1227 43.7314 42.1451V80.2026C44.0221 83.2474 44.4284 84.9009 45.696 87.731C54.008 100 68.2138 98.9422 85.2719 87.731L86.0449 94.9984H114.135V89.7204C107.67 89.8953 105.985 88.914 105.572 85.2905L106.048 53.1247C104.684 35.5057 128.041 33.8291 127.165 49.8961V85.2905C127.141 88.9741 125.277 89.8853 120.112 89.7204V94.9984H154.251V89.7204C149.12 89.7353 147.668 88.7082 147.429 85.2905V53.1247C146.352 35.1607 169.271 33.8775 169.271 49.8961V85.2905C169.213 88.773 167.793 89.8405 162.248 89.7204V94.9984H198.165V90.0218" stroke="#2E3E5F" stroke-width="2.00029"/>
<path d="M7.15529 29.3224C8.52089 28.7233 10.7702 28.5401 12.1033 28.5219C13.4363 28.5038 13.112 28.4652 14.6221 28.5219C15.5262 28.5933 16.8061 29.3224 16.8061 29.3224C16.8061 29.3224 18.9603 30.3304 20.1225 31.2872C20.9485 31.9672 21.3208 32.4521 22.0354 33.2484C22.878 34.1875 23.3651 34.7113 24.0727 35.7559C24.9167 37.0019 25.2935 37.7723 25.8918 39.1532C26.5141 40.5896 26.7821 41.4365 27.1632 42.9549C27.5145 44.355 27.6844 45.1564 27.8067 46.5948C27.9218 47.9482 27.8067 48.7146 27.8067 50.0729V55.4115V57.1908C27.6902 58.7028 27.3922 61.0822 27.3922 61.0822C27.3922 61.0822 27.276 62.0137 27.1632 62.6041C26.9847 63.5373 26.8912 64.0896 26.7236 64.9676C26.5595 65.8271 26.2557 67.5896 26.1465 68.1053C26.0049 68.7738 25.8274 69.4636 25.7547 69.7183C25.6965 69.922 25.3562 70.8434 25.3562 70.8434C25.3562 70.8434 25.2624 71.1482 24.9823 72.0345C24.8966 72.3054 24.4589 73.2725 24.3134 73.5635C24.1679 73.8546 23.6914 74.4535 23.5095 74.6354C23.3276 74.8173 22.187 75.0284 22.0022 75.0457C21.898 75.0554 19.5975 75.3128 19.5975 74.0158L19.5585 72.4843C19.5585 72.4843 19.4523 70.0045 19.4523 69.5151V67.6687V65.595C19.4523 65.122 19.1169 62.8089 19.0521 62.2479C18.9881 61.6937 18.891 60.4808 18.5427 59.4101C18.2477 58.5032 17.8272 57.7851 17.524 57.1908C16.9283 56.0233 16.7221 55.4819 15.7777 54.3894C14.8333 53.297 14.4251 53.1034 13.5585 52.2793L11.4847 50.8241L9.41096 49.5871C9.41096 49.5871 8.04874 48.9371 7.15529 48.5684C6.5358 48.3127 6.21946 48.2027 5.63649 47.8721C4.68356 47.3318 3.39991 46.1758 3.39991 46.1758C3.39991 46.1758 2.10387 44.7235 1.55255 43.6569C0.907521 42.4091 0.718543 41.4017 0.664733 40.972C0.615939 40.5823 0.422692 38.6357 0.534055 37.945C0.534055 37.945 0.984394 35.6258 1.6791 34.3092C2.38049 32.98 3.25463 31.8719 4.00001 31.193C5.21222 30.2812 5.78969 29.9214 7.15529 29.3224Z" fill="#428AC8" stroke="#428AC8" stroke-width="1.00014"/>
<circle cx="285.542" cy="10.9585" r="10.9585" fill="#2E3E5F"/>
</svg>
