<svg width="128" height="40" viewBox="0 0 128 40" fill="none" xmlns="http://www.w3.org/2000/svg">
<path d="M85.6088 12.6018C77.5808 15.6246 79.4935 21.3302 85.6532 21.3302C86.7668 21.0694 87.1008 19.7425 88.1319 17.0971C90.3325 12.8489 94.2866 13.096 94.9898 17.0971V20.6672C89.7097 23.628 85.6535 22.9708 80.9018 27.107C79.0742 29.7265 79.1557 32.1371 80.9018 35.3088C83.838 39.7398 89.7596 39.5918 95.7999 35.3088C98.3898 39.638 105.082 39.8081 111.51 35.082C115.026 39.6569 121.737 39.7514 127.03 35.1954L125.083 33.702C122.55 35.3088 120.219 34.4575 119.368 30.7529V11.8311L119.136 11.5414L108.239 13.0478V14.9676C110.539 14.9144 111.17 15.4776 111.396 17.3904V30.129C110.999 35.7815 102.908 35.876 102.655 30.129V17.3904C102.097 14.2169 100.981 13.0051 97.1497 11.897C92.4709 11.2253 89.9604 11.4291 85.6088 12.6018Z" fill="#2E3E5F"/>
<path d="M85.6532 12.5852C85.6384 12.5907 85.6236 12.5963 85.6088 12.6018M85.6088 12.6018C77.5808 15.6246 79.4935 21.3302 85.6532 21.3302C86.7668 21.0694 87.1008 19.7425 88.1319 17.0971C90.3325 12.8489 94.2866 13.096 94.9898 17.0971V20.6672C89.7097 23.628 85.6535 22.9708 80.9018 27.107C79.0742 29.7265 79.1557 32.1371 80.9018 35.3088C83.838 39.7398 89.7596 39.5918 95.7999 35.3088C98.3898 39.638 105.082 39.8081 111.51 35.082C115.026 39.6569 121.737 39.7514 127.03 35.1954L125.083 33.702C122.55 35.3088 120.219 34.4575 119.368 30.7529V11.8311L119.136 11.5414L108.239 13.0478V14.9676C110.539 14.9144 111.17 15.4776 111.396 17.3904V30.129C110.999 35.7815 102.908 35.876 102.655 30.129V17.3904C102.097 14.2169 100.981 13.0051 97.1497 11.897C92.4709 11.2253 89.9604 11.4291 85.6088 12.6018Z" stroke="#2E3E5F" stroke-width="0.397728"/>
<path d="M93.6637 31.1461V23.3896C89.0081 25.0508 86.0143 26.8301 86.6291 31.1461C87.2439 35.4622 93.6637 35.4159 93.6637 31.1461Z" fill="#161526"/>
<path d="M25.3229 11.6252C21.7754 12.0998 14.6585 13.0493 14.5718 13.0492V15.0825C16.8454 15.0564 17.5909 15.4636 17.7558 17.0632V32.1975C17.8715 33.4084 18.033 34.0659 18.5371 35.1914C21.8425 40.0704 27.4918 39.6497 34.2753 35.1914L34.5827 38.0814H45.7533V35.9825C43.1825 36.052 42.5123 35.6618 42.3481 34.2209L42.5373 21.4294C41.9948 14.4229 51.2832 13.7562 50.935 20.1455V34.2209C50.9253 35.6857 50.1843 36.048 48.1303 35.9825V38.0814H61.7062V35.9825C59.666 35.9884 59.0885 35.58 58.9932 34.2209V21.4294C58.5652 14.2857 67.6793 13.7754 67.6793 20.1455V34.2209C67.6563 35.6058 67.0915 36.0303 64.8864 35.9825V38.0814H79.1695V36.1023C76.6159 36.0762 75.6444 35.4111 75.6317 34.0337V18.8729C74.6948 10.0566 65.4792 9.54978 58.2757 15.5236C55.4649 10.8706 50.2659 9.71236 42.3481 15.0444V11.9449L41.9948 11.6377L31.3101 13.0791V15.0444L31.3195 15.0439C32.4088 14.9953 34.2753 14.9118 34.2753 17.0632V30.1413C34.1595 32.8574 33.2929 33.6977 30.8341 34.4212C26.9831 34.6015 26.0713 33.4425 25.6922 30.1413V11.9079L25.3229 11.6252Z" fill="#2E3E5F"/>
<path d="M79.5622 36.1015C76.7149 36.1406 75.645 35.4795 75.6317 34.0337V18.8729C74.6948 10.0566 65.4792 9.54978 58.2757 15.5236C55.4649 10.8706 50.2659 9.71236 42.3481 15.0444V11.9449L41.9948 11.6377L31.3101 13.0791V15.0444C32.3981 14.9958 34.2753 14.9056 34.2753 17.0632C34.2753 19.2208 34.2753 30.1413 34.2753 30.1413C34.1595 32.8574 33.2929 33.6977 30.8341 34.4212C26.9831 34.6015 26.0713 33.4425 25.6922 30.1413V11.9079L25.3229 11.6252C21.7754 12.0998 14.6585 13.0493 14.5718 13.0492V15.0825C16.8454 15.0564 17.5909 15.4636 17.7558 17.0632V32.1975C17.8715 33.4084 18.033 34.0659 18.5371 35.1914C21.8425 40.0704 27.4918 39.6497 34.2753 35.1914L34.5827 38.0814H45.7533V35.9825C43.1825 36.052 42.5123 35.6618 42.3481 34.2209L42.5373 21.4294C41.9948 14.4229 51.2832 13.7562 50.935 20.1455V34.2209C50.9253 35.6857 50.1843 36.048 48.1303 35.9825V38.0814H61.7062V35.9825C59.666 35.9884 59.0885 35.58 58.9932 34.2209V21.4294C58.5652 14.2857 67.6793 13.7754 67.6793 20.1455V34.2209C67.6563 35.6058 67.0915 36.0303 64.8864 35.9825V38.0814H79.1695V36.1023" stroke="#2E3E5F" stroke-width="0.795455"/>
<path d="M3.21058 11.9648C3.75364 11.7266 4.64814 11.6537 5.17824 11.6465C5.70834 11.6393 5.5794 11.6239 6.17993 11.6465C6.53945 11.6749 7.04842 11.9648 7.04842 11.9648C7.04842 11.9648 7.90507 12.3657 8.36725 12.7462C8.69573 13.0166 8.84379 13.2094 9.12794 13.5261C9.46305 13.8995 9.65675 14.1078 9.93814 14.5232C10.2738 15.0187 10.4236 15.3251 10.6615 15.8742C10.909 16.4455 11.0156 16.7822 11.1671 17.386C11.3068 17.9428 11.3744 18.2616 11.4231 18.8335C11.4688 19.3717 11.4231 19.6765 11.4231 20.2167V22.3397V23.0473C11.3767 23.6486 11.2582 24.5948 11.2582 24.5948C11.2582 24.5948 11.212 24.9652 11.1671 25.2C11.0961 25.5711 11.059 25.7907 10.9923 26.1399C10.9271 26.4817 10.8063 27.1826 10.7628 27.3876C10.7065 27.6535 10.6359 27.9278 10.607 28.0291C10.5839 28.1101 10.4485 28.4765 10.4485 28.4765C10.4485 28.4765 10.4113 28.5977 10.2998 28.9502C10.2658 29.0579 10.0917 29.4425 10.0338 29.5582C9.97598 29.674 9.78651 29.9121 9.71417 29.9845C9.64183 30.0568 9.18823 30.1408 9.11478 30.1476C9.07333 30.1515 8.1585 30.2539 8.1585 29.7381L8.14296 29.129C8.14296 29.129 8.10073 28.1429 8.10073 27.9483V27.214V26.3894C8.10073 26.2013 7.96734 25.2814 7.94158 25.0583C7.91613 24.8379 7.87753 24.3556 7.73903 23.9298C7.62172 23.5692 7.45449 23.2836 7.33393 23.0473C7.09704 22.583 7.01503 22.3677 6.63947 21.9332C6.26391 21.4988 6.10158 21.4218 5.75693 21.0941L4.93226 20.5154L4.10759 20.0235C4.10759 20.0235 3.56588 19.765 3.21058 19.6184C2.96422 19.5167 2.83843 19.473 2.6066 19.3415C2.22764 19.1266 1.71717 18.6669 1.71717 18.6669C1.71717 18.6669 1.20178 18.0894 0.982532 17.6652C0.726024 17.169 0.650873 16.7684 0.629474 16.5975C0.61007 16.4425 0.533222 15.6684 0.577507 15.3938C0.577507 15.3938 0.756594 14.4715 1.03286 13.9479C1.31178 13.4193 1.6594 12.9787 1.95581 12.7087C2.43788 12.3461 2.66752 12.203 3.21058 11.9648Z" fill="#428AC8" stroke="#428AC8" stroke-width="0.397728"/>
<circle cx="113.917" cy="4.66255" r="4.35787" fill="#2E3E5F"/>
</svg>
