<svg width="85" height="85" viewBox="0 0 85 85" fill="none" xmlns="http://www.w3.org/2000/svg">
<path d="M42.4924 16.9968C43.6193 16.9968 44.7002 17.4445 45.497 18.2414C46.2939 19.0383 46.7416 20.1191 46.7416 21.246V46.7414C46.7416 47.8683 46.2939 48.9491 45.497 49.746C44.7002 50.5429 43.6193 50.9906 42.4924 50.9906C41.3654 50.9906 40.2846 50.5429 39.4877 49.746C38.6908 48.9491 38.2432 47.8683 38.2432 46.7414V21.246C38.2432 20.1191 38.6908 19.0383 39.4877 18.2414C40.2846 17.4445 41.3654 16.9968 42.4924 16.9968V16.9968ZM42.4924 59.489C41.3654 59.489 40.2846 59.9367 39.4877 60.7336C38.6908 61.5305 38.2432 62.6113 38.2432 63.7382C38.2432 64.8652 38.6908 65.946 39.4877 66.7429C40.2846 67.5398 41.3654 67.9874 42.4924 67.9874C43.6193 67.9874 44.7002 67.5398 45.497 66.7429C46.2939 65.946 46.7416 64.8652 46.7416 63.7382C46.7416 62.6113 46.2939 61.5305 45.497 60.7336C44.7002 59.9367 43.6193 59.489 42.4924 59.489Z" fill="#FFF500"/>
<path fill-rule="evenodd" clip-rule="evenodd" d="M42.4922 0C19.0238 0 0 19.0238 0 42.4922C0 65.9606 19.0238 84.9844 42.4922 84.9844C65.9606 84.9844 84.9844 65.9606 84.9844 42.4922C84.9844 19.0238 65.9606 0 42.4922 0ZM8.49844 42.4922C8.49844 51.5079 12.0799 60.1543 18.455 66.5294C24.83 72.9045 33.4765 76.4859 42.4922 76.4859C51.5079 76.4859 60.1543 72.9045 66.5294 66.5294C72.9045 60.1543 76.4859 51.5079 76.4859 42.4922C76.4859 33.4765 72.9045 24.83 66.5294 18.455C60.1543 12.0799 51.5079 8.49844 42.4922 8.49844C33.4765 8.49844 24.83 12.0799 18.455 18.455C12.0799 24.83 8.49844 33.4765 8.49844 42.4922V42.4922Z" fill="#FFF500"/>
</svg>
