<svg width="53" height="51" viewBox="0 0 53 51" fill="none" xmlns="http://www.w3.org/2000/svg">
<g clip-path="url(#clip0_3554_7398)">
<path d="M0.199219 0.461914L19.4105 0.461914L19.4105 6.0951L13.3209 6.0951L13.3209 22.0379L6.25798 22.0379L6.25798 6.0951L0.199219 6.0951L0.199219 0.461914Z" fill="white"/>
<path d="M28.9076 0.461914L21.8438 0.461914L21.8438 22.0379L28.9076 22.0379L28.9076 0.461914Z" fill="white"/>
<path d="M45.8791 6.75493C44.9961 6.21197 44.1383 5.93955 43.3066 5.93955C42.474 5.93955 41.7178 6.16012 41.039 6.60128C40.3583 7.04243 39.8306 7.65232 39.4548 8.43282C39.0791 9.21238 38.8917 10.0947 38.8917 11.0788C38.8917 12.0639 39.0791 12.9518 39.4548 13.7408C39.8306 14.5307 40.3574 15.1519 41.039 15.6025C41.7178 16.054 42.474 16.2793 43.3066 16.2793C44.0786 16.2793 44.9047 16.0484 45.7877 15.5874C46.6707 15.1255 47.4567 14.5156 48.1476 13.7559L52.226 18.157C51.0288 19.4909 49.5929 20.5532 47.9183 21.3422C46.2446 22.1321 44.584 22.5271 42.9411 22.5271C40.7891 22.5271 38.8562 22.0398 37.1415 21.0651C35.4259 20.0904 34.0814 18.7368 33.1061 17.0023C32.1336 15.2688 31.645 13.3242 31.645 11.1693C31.645 9.03516 32.142 7.12161 33.1369 5.42864C34.1317 3.73566 35.5061 2.40749 37.2628 1.44318C39.0185 0.481687 41.0026 -1.20947e-07 43.2152 -1.49544e-07C44.8395 -1.70538e-07 46.473 0.363857 48.1169 1.09251C49.7616 1.82023 51.1304 2.79114 52.226 4.00055L48.1476 8.89471C47.5183 8.0124 46.7621 7.29883 45.8791 6.75493Z" fill="white"/>
<rect width="6.92014" height="8.928" transform="matrix(0.708353 0.705859 -0.708353 0.705859 32.5522 28.3193)" fill="#008080"/>
<rect width="6.92014" height="8.928" transform="matrix(-0.708353 0.705859 -0.708353 -0.705859 37.4517 45.8066)" fill="#008080"/>
<path fill-rule="evenodd" clip-rule="evenodd" d="M19.9014 28.3203L14.9995 33.205L21.3255 39.5087L15.0009 45.8111L19.9028 50.6957L26.2274 44.3933L26.7057 44.87L26.7066 44.869L26.2283 44.3924L31.5647 39.0748L31.5641 39.0742L31.13 39.5068L26.2287 34.6228L26.2274 34.6241L19.9014 28.3203Z" fill="white"/>
</g>
<defs>
<clipPath id="clip0_3554_7398">
<rect width="52.0281" height="50.694" fill="white"/>
</clipPath>
</defs>
</svg>
