<svg width="131" height="128" viewBox="0 0 131 128" fill="none" xmlns="http://www.w3.org/2000/svg">
<g clip-path="url(#clip0_2951_2636)">
<path d="M0.5 1.16211L48.8094 1.16211L48.8094 15.3276L33.4964 15.3276L33.4964 55.418L15.7356 55.418L15.7356 15.3276L0.5 15.3276L0.5 1.16211Z" fill="white"/>
<path d="M72.6919 1.16211L54.9287 1.16211L54.9287 55.418L72.6919 55.418L72.6919 1.16211Z" fill="white"/>
<path d="M115.37 16.9871C113.149 15.6217 110.992 14.9367 108.901 14.9367C106.807 14.9367 104.906 15.4914 103.199 16.6007C101.487 17.7101 100.16 19.2437 99.2151 21.2064C98.2702 23.1667 97.7989 25.3854 97.7989 27.8601C97.7989 30.3371 98.2702 32.57 99.2151 34.5541C100.16 36.5405 101.485 38.1025 103.199 39.2356C104.906 40.371 106.807 40.9375 108.901 40.9375C110.842 40.9375 112.92 40.3568 115.14 39.1977C117.36 38.0362 119.337 36.5025 121.074 34.592L131.33 45.6594C128.319 49.0135 124.709 51.6849 120.498 53.6689C116.289 55.6553 112.113 56.6485 107.982 56.6485C102.57 56.6485 97.7098 55.423 93.398 52.972C89.0838 50.521 85.7028 47.1171 83.2503 42.7556C80.8048 38.3965 79.5762 33.5064 79.5762 28.0876C79.5762 22.7211 80.8259 17.9092 83.3276 13.6519C85.8294 9.39472 89.2854 6.05484 93.7028 3.62993C98.1178 1.21212 103.107 0.000854188 108.671 0.000854116C112.755 0.000854063 116.863 0.915826 120.997 2.74814C125.133 4.57808 128.575 7.01959 131.33 10.0608L121.074 22.3679C119.492 20.1492 117.59 18.3548 115.37 16.9871Z" fill="white"/>
<rect width="17.4017" height="22.4507" transform="matrix(0.708353 0.705859 -0.708353 0.705859 81.8594 71.2137)" fill="#008080"/>
<rect width="17.4017" height="22.4507" transform="matrix(-0.708353 0.705859 -0.708353 -0.705859 94.1816 115.191)" fill="#008080"/>
<path fill-rule="evenodd" clip-rule="evenodd" d="M50.0521 71.2152L37.7256 83.4983L53.6306 99.3474L37.7269 115.195L50.0534 127.478L65.9572 111.631L67.1625 112.832L67.163 112.831L65.9576 111.63L79.379 98.2559L79.3785 98.2554L78.2852 99.3448L65.9592 87.0623L65.9572 87.0643L50.0521 71.2152Z" fill="white"/>
</g>
<defs>
<clipPath id="clip0_2951_2636">
<rect width="130.832" height="127.477" fill="white"/>
</clipPath>
</defs>
</svg>
