<svg width="32" height="40" viewBox="0 0 32 40" fill="none" xmlns="http://www.w3.org/2000/svg">
<path d="M30.72 10.2232H24.816C25.36 9.1912 25.68 7.96635 25.68 6.6547C25.68 2.98497 23.204 0 20.16 0C18.504 0 17.012 0.887293 16 2.28574C14.988 0.887293 13.496 0 11.84 0C8.796 0 6.32 2.98497 6.32 6.6547C6.32 7.96635 6.636 9.1912 7.184 10.2232H1.28C0.572 10.2232 0 10.9127 0 11.7663V21.4108C0 21.6229 0.144 21.7965 0.32 21.7965H1.92V38.3851C1.92 39.2386 2.492 39.9282 3.2 39.9282H28.8C29.508 39.9282 30.08 39.2386 30.08 38.3851V21.7965H31.68C31.856 21.7965 32 21.6229 32 21.4108V11.7663C32 10.9127 31.428 10.2232 30.72 10.2232ZM17.36 6.6547C17.36 4.79331 18.616 3.27913 20.16 3.27913C21.704 3.27913 22.96 4.79331 22.96 6.6547C22.96 8.51608 21.704 10.0303 20.16 10.0303H17.36V6.6547ZM11.84 3.27913C13.384 3.27913 14.64 4.79331 14.64 6.6547V10.0303H11.84C10.296 10.0303 9.04 8.51608 9.04 6.6547C9.04 4.79331 10.296 3.27913 11.84 3.27913ZM2.72 18.5174V13.5023H14.64V18.5174H2.72ZM4.64 21.7965H14.64V36.6491H4.64V21.7965ZM27.36 36.6491H17.36V21.7965H27.36V36.6491ZM29.28 18.5174H17.36V13.5023H29.28V18.5174Z" fill="white"/>
</svg>
