<svg width="29" height="29" viewBox="0 0 29 29" fill="none" xmlns="http://www.w3.org/2000/svg">
<path d="M7.91379 22.4991L12.1708 18.2421L10.7568 16.8281L6.49979 21.0851L5.70679 20.2921C5.51926 20.1047 5.26495 19.9993 4.99979 19.9993C4.73462 19.9993 4.48031 20.1047 4.29279 20.2921L0.292786 24.2921C0.105315 24.4797 0 24.734 0 24.9991C0 25.2643 0.105315 25.5186 0.292786 25.7061L3.29279 28.7061C3.48031 28.8936 3.73462 28.9989 3.99979 28.9989C4.26495 28.9989 4.51926 28.8936 4.70679 28.7061L8.70679 24.7061C8.89426 24.5186 8.99957 24.2643 8.99957 23.9991C8.99957 23.734 8.89426 23.4797 8.70679 23.2921L7.91379 22.4991ZM3.99979 26.5851L2.41379 24.9991L4.99979 22.4131L6.58579 23.9991L3.99979 26.5851Z" fill="white"/>
<path d="M22.9999 27.9996C21.4092 27.9978 19.8841 27.365 18.7593 26.2402C17.6345 25.1154 17.0017 23.5903 16.9999 21.9996C17.0003 21.4769 17.071 20.9566 17.2099 20.4526L8.54789 11.7896C8.0436 11.9285 7.52295 11.9992 6.99989 11.9996C6.02231 12.0035 5.05871 11.7675 4.19356 11.3124C3.32841 10.8572 2.58813 10.1968 2.03762 9.38893C1.48712 8.58109 1.1432 7.65053 1.03603 6.67884C0.928848 5.70716 1.06168 4.72402 1.42289 3.81562L1.98088 2.39462L5.29289 5.70661C5.4832 5.88835 5.73623 5.98976 5.99938 5.98976C6.26254 5.98976 6.51557 5.88835 6.70588 5.70661C6.79883 5.61383 6.87257 5.50362 6.92288 5.38231C6.97319 5.26099 6.99909 5.13095 6.99909 4.99962C6.99909 4.86828 6.97319 4.73824 6.92288 4.61692C6.87257 4.49561 6.79883 4.3854 6.70588 4.29262L3.39489 0.978615L4.81788 0.421615C5.72627 0.0610583 6.70922 -0.0712449 7.68061 0.0362958C8.652 0.143837 9.58221 0.48794 10.3897 1.03846C11.1973 1.58898 11.8575 2.32913 12.3125 3.19405C12.7676 4.05898 13.0036 5.02229 12.9999 5.99962C12.9994 6.52236 12.9288 7.04267 12.7899 7.54662L21.4529 16.2096C21.9569 16.0709 22.4772 16.0002 22.9999 15.9996C23.9775 15.9957 24.9411 16.2317 25.8062 16.6868C26.6714 17.142 27.4116 17.8025 27.9621 18.6103C28.5127 19.4181 28.8566 20.3487 28.9637 21.3204C29.0709 22.2921 28.9381 23.2752 28.5769 24.1836L28.0199 25.6046L24.7069 22.2926C24.5166 22.1109 24.2635 22.0095 24.0004 22.0095C23.7372 22.0095 23.4842 22.1109 23.2939 22.2926C23.2009 22.3853 23.1271 22.4955 23.0767 22.6168C23.0263 22.738 23.0003 22.8681 23.0002 22.9994C23.0001 23.1307 23.0259 23.2608 23.0761 23.3822C23.1263 23.5035 23.2 23.6138 23.2929 23.7066L26.6059 27.0196L25.1839 27.5776C24.4888 27.8541 23.7479 27.9973 22.9999 27.9996ZM9.06188 9.47562L19.5229 19.9366L19.2839 20.5466C19.0497 21.1321 18.9581 21.7649 19.0168 22.3928C19.0755 23.0206 19.2827 23.6255 19.6213 24.1575C19.9599 24.6895 20.4202 25.1332 20.9642 25.4521C21.5082 25.7711 22.1203 25.956 22.7499 25.9916L21.8789 25.1216C21.6003 24.843 21.3792 24.5123 21.2284 24.1483C21.0776 23.7843 21 23.3941 21 23.0001C21 22.6061 21.0776 22.216 21.2284 21.8519C21.3792 21.4879 21.6003 21.1572 21.8789 20.8786C22.4504 20.3329 23.2102 20.0284 24.0004 20.0284C24.7906 20.0284 25.5504 20.3329 26.1219 20.8786L26.9919 21.7496C26.9561 21.12 26.771 20.5079 26.452 19.9639C26.133 19.4199 25.6891 18.9596 25.1571 18.621C24.625 18.2824 24.0201 18.0752 23.3922 18.0166C22.7643 17.9579 22.1314 18.0494 21.5459 18.2836L20.9369 18.5226L10.4769 8.06262L10.7169 7.45262C10.9511 6.86705 11.0427 6.23416 10.9839 5.60623C10.9252 4.97829 10.7179 4.37335 10.3792 3.84136C10.0405 3.30937 9.58001 2.86562 9.03588 2.54677C8.49175 2.22791 7.87956 2.04311 7.24989 2.00762L8.11988 2.87762C8.39851 3.1562 8.61954 3.48694 8.77033 3.85095C8.92113 4.21496 8.99874 4.60511 8.99874 4.99911C8.99874 5.39312 8.92113 5.78327 8.77033 6.14728C8.61954 6.51129 8.39851 6.84203 8.11988 7.12062C7.54838 7.66632 6.78858 7.97081 5.99838 7.97081C5.20819 7.97081 4.44839 7.66632 3.87688 7.12062L3.00689 6.24962C3.04253 6.8792 3.22744 7.49128 3.54636 8.03528C3.86528 8.57928 4.30905 9.03961 4.84101 9.37823C5.37298 9.71685 5.97787 9.92405 6.60573 9.98271C7.23359 10.0414 7.8664 9.94982 8.45188 9.71562L9.06188 9.47562Z" fill="white"/>
<path d="M28.1214 0.850194C27.5499 0.304493 26.7901 0 25.9999 0C25.2097 0 24.4499 0.304493 23.8784 0.850194L16.3984 8.33019L17.8124 9.74419L25.2924 2.26419C25.4829 2.08239 25.7361 1.98096 25.9994 1.98096C26.2628 1.98096 26.516 2.08239 26.7064 2.26419C26.8934 2.45198 26.9984 2.70619 26.9984 2.97119C26.9984 3.2362 26.8934 3.49041 26.7064 3.67819L19.2264 11.1582L20.6404 12.5732L28.1204 5.09319C28.6824 4.53018 28.9981 3.76719 28.9981 2.97169C28.9981 2.1762 28.6834 1.41321 28.1214 0.850194Z" fill="white"/>
</svg>
