<svg width="54" height="42" viewBox="0 0 54 42" fill="none" xmlns="http://www.w3.org/2000/svg">
<path d="M48.2 41.6151H5.8C4.39435 41.6151 3.04628 41.078 2.05233 40.1218C1.05839 39.1656 0.5 37.8688 0.5 36.5166V5.70386C0.559446 4.39046 1.14397 3.14992 2.13155 2.24122C3.11912 1.33252 4.4334 0.825906 5.8 0.827151H48.2C49.6056 0.827151 50.9537 1.36431 51.9477 2.32047C52.9416 3.27662 53.5 4.57344 53.5 5.92565V36.5166C53.5 37.8688 52.9416 39.1656 51.9477 40.1218C50.9537 41.078 49.6056 41.6151 48.2 41.6151ZM5.8 10.6876V36.5166H48.2V10.6876L27 24.2802L5.8 10.6876ZM7.92 5.92565L27 18.162L46.08 5.92565H7.92Z" fill="white"/>
</svg>
