<svg width="448" height="418" viewBox="0 0 448 418" fill="none" xmlns="http://www.w3.org/2000/svg">
<g clip-path="url(#clip0_2930_2651)">
<rect width="448" height="418" fill="#0B9EA7"/>
<rect x="420.377" y="75.625" width="81.877" height="407.541" transform="rotate(28.8183 420.377 75.625)" fill="#055E62"/>
<circle cx="19.1253" cy="75.625" r="9.77869" transform="rotate(-33.2112 19.1253 75.625)" fill="#055E62"/>
<circle cx="59.5375" cy="137.354" r="9.77869" transform="rotate(-33.2112 59.5375 137.354)" fill="#055E62"/>
<circle cx="99.9496" cy="199.084" r="9.77869" transform="rotate(-33.2112 99.9496 199.084)" fill="#055E62"/>
<circle cx="-0.671525" cy="0.399328" r="9.77869" transform="rotate(-33.2112 -0.671525 0.399328)" fill="#055E62"/>
<circle cx="39.7406" cy="62.1287" r="9.77869" transform="rotate(-33.2112 39.7406 62.1287)" fill="#055E62"/>
<circle cx="80.1527" cy="123.858" r="9.77869" transform="rotate(-33.2112 80.1527 123.858)" fill="#055E62"/>
<circle cx="120.565" cy="185.587" r="9.77869" transform="rotate(-33.2112 120.565 185.587)" fill="#055E62"/>
<circle cx="19.9457" cy="-13.097" r="9.77869" transform="rotate(-33.2112 19.9457 -13.097)" fill="#055E62"/>
<circle cx="60.3558" cy="48.6324" r="9.77869" transform="rotate(-33.2112 60.3558 48.6324)" fill="#055E62"/>
<circle cx="100.768" cy="110.362" r="9.77869" transform="rotate(-33.2112 100.768 110.362)" fill="#055E62"/>
<circle cx="141.18" cy="172.091" r="9.77869" transform="rotate(-33.2112 141.18 172.091)" fill="#055E62"/>
<circle cx="80.973" cy="35.136" r="9.77869" transform="rotate(-33.2112 80.973 35.136)" fill="#055E62"/>
<circle cx="121.385" cy="96.8655" r="9.77869" transform="rotate(-33.2112 121.385 96.8655)" fill="#055E62"/>
<circle cx="161.795" cy="158.595" r="9.77869" transform="rotate(-33.2112 161.795 158.595)" fill="#055E62"/>
<circle cx="101.588" cy="21.6397" r="9.77869" transform="rotate(-33.2112 101.588 21.6397)" fill="#055E62"/>
<circle cx="142" cy="83.3691" r="9.77869" transform="rotate(-33.2112 142 83.3691)" fill="#055E62"/>
<circle cx="182.412" cy="145.098" r="9.77869" transform="rotate(-33.2112 182.412 145.098)" fill="#055E62"/>
<circle cx="248.744" cy="-10.0884" r="16.3882" transform="rotate(0.263474 248.744 -10.0884)" fill="#055E62" fill-opacity="0.3"/>
<circle cx="248.176" cy="113.561" r="16.3882" transform="rotate(0.263474 248.176 113.561)" fill="#055E62" fill-opacity="0.3"/>
<circle cx="247.608" cy="237.21" r="16.3882" transform="rotate(0.263474 247.608 237.21)" fill="#055E62" fill-opacity="0.3"/>
<circle cx="247.039" cy="360.859" r="16.3882" transform="rotate(0.263474 247.039 360.859)" fill="#055E62" fill-opacity="0.3"/>
<circle cx="290.039" cy="-9.89899" r="16.3882" transform="rotate(0.263474 290.039 -9.89899)" fill="#055E62" fill-opacity="0.3"/>
<circle cx="289.471" cy="113.75" r="16.3882" transform="rotate(0.263474 289.471 113.75)" fill="#055E62" fill-opacity="0.3"/>
<circle cx="288.902" cy="237.399" r="16.3882" transform="rotate(0.263474 288.902 237.399)" fill="#055E62" fill-opacity="0.3"/>
<circle cx="288.334" cy="361.049" r="16.3882" transform="rotate(0.263474 288.334 361.049)" fill="#055E62" fill-opacity="0.3"/>
<circle cx="331.336" cy="-9.70777" r="16.3882" transform="rotate(0.263474 331.336 -9.70777)" fill="#055E62" fill-opacity="0.3"/>
<circle cx="330.764" cy="113.94" r="16.3882" transform="rotate(0.263474 330.764 113.94)" fill="#055E62" fill-opacity="0.3"/>
<circle cx="330.195" cy="237.589" r="16.3882" transform="rotate(0.263474 330.195 237.589)" fill="#055E62" fill-opacity="0.3"/>
<circle cx="329.627" cy="361.238" r="16.3882" transform="rotate(0.263474 329.627 361.238)" fill="#055E62" fill-opacity="0.3"/>
<circle cx="372.629" cy="-9.51831" r="16.3882" transform="rotate(0.263474 372.629 -9.51831)" fill="#055E62" fill-opacity="0.3"/>
<circle cx="372.061" cy="114.131" r="16.3882" transform="rotate(0.263474 372.061 114.131)" fill="#055E62" fill-opacity="0.3"/>
<circle cx="371.494" cy="237.78" r="16.3882" transform="rotate(0.263474 371.494 237.78)" fill="#055E62" fill-opacity="0.3"/>
<circle cx="370.922" cy="361.427" r="16.3882" transform="rotate(0.263474 370.922 361.427)" fill="#055E62" fill-opacity="0.3"/>
<circle cx="413.924" cy="-9.32892" r="16.3882" transform="rotate(0.263474 413.924 -9.32892)" fill="#055E62" fill-opacity="0.3"/>
<circle cx="413.356" cy="114.32" r="16.3882" transform="rotate(0.263474 413.356 114.32)" fill="#055E62" fill-opacity="0.3"/>
<circle cx="412.787" cy="237.969" r="16.3882" transform="rotate(0.263474 412.787 237.969)" fill="#055E62" fill-opacity="0.3"/>
<circle cx="412.219" cy="361.619" r="16.3882" transform="rotate(0.263474 412.219 361.619)" fill="#055E62" fill-opacity="0.3"/>
<path d="M398.799 7.81409C398.799 -1.20958 395.805 -9.97838 390.288 -17.1187C384.771 -24.2591 377.041 -29.3676 368.309 -31.6441C359.577 -33.9207 350.337 -33.2365 342.035 -29.699C333.734 -26.1614 326.841 -19.9702 322.435 -12.0952C318.029 -4.22015 316.36 4.89383 317.689 13.8191C319.018 22.7444 323.269 30.9768 329.778 37.2268C336.287 43.4768 344.685 47.3913 353.657 48.3571C362.629 49.3229 371.668 47.2855 379.357 42.564L366.824 22.1516C363.652 24.0996 359.922 24.9402 356.221 24.5417C352.519 24.1432 349.054 22.5282 346.369 19.9495C343.683 17.3708 341.929 13.9742 341.381 10.2917C340.832 6.60922 341.521 2.84888 343.339 -0.400277C345.156 -3.64943 348.001 -6.20386 351.426 -7.66343C354.851 -9.123 358.663 -9.40526 362.266 -8.46599C365.868 -7.52672 369.058 -5.41899 371.334 -2.47295C373.611 0.473089 374.846 4.09101 374.846 7.81409H398.799Z" fill="#18D1DB"/>
<rect x="-44.0703" y="212.621" width="118.783" height="251.793" fill="#1AD9E3"/>
</g>
<defs>
<clipPath id="clip0_2930_2651">
<rect width="448" height="418" fill="white"/>
</clipPath>
</defs>
</svg>
