<svg width="183" height="183" viewBox="0 0 183 183" fill="none" xmlns="http://www.w3.org/2000/svg">
<path d="M91.5 45.75C93.5223 45.75 95.4617 46.5533 96.8917 47.9833C98.3217 49.4133 99.125 51.3527 99.125 53.375V99.125C99.125 101.147 98.3217 103.087 96.8917 104.517C95.4617 105.947 93.5223 106.75 91.5 106.75C89.4777 106.75 87.5383 105.947 86.1083 104.517C84.6783 103.087 83.875 101.147 83.875 99.125V53.375C83.875 51.3527 84.6783 49.4133 86.1083 47.9833C87.5383 46.5533 89.4777 45.75 91.5 45.75ZM91.5 122C89.4777 122 87.5383 122.803 86.1083 124.233C84.6783 125.663 83.875 127.603 83.875 129.625C83.875 131.647 84.6783 133.587 86.1083 135.017C87.5383 136.447 89.4777 137.25 91.5 137.25C93.5223 137.25 95.4617 136.447 96.8917 135.017C98.3217 133.587 99.125 131.647 99.125 129.625C99.125 127.603 98.3217 125.663 96.8917 124.233C95.4617 122.803 93.5223 122 91.5 122Z" fill="#BC0000"/>
<path fill-rule="evenodd" clip-rule="evenodd" d="M91.5 15.25C49.3871 15.25 15.25 49.3871 15.25 91.5C15.25 133.613 49.3871 167.75 91.5 167.75C133.613 167.75 167.75 133.613 167.75 91.5C167.75 49.3871 133.613 15.25 91.5 15.25ZM30.5 91.5C30.5 107.678 36.9268 123.194 48.3665 134.634C59.8062 146.073 75.3218 152.5 91.5 152.5C107.678 152.5 123.194 146.073 134.634 134.634C146.073 123.194 152.5 107.678 152.5 91.5C152.5 75.3218 146.073 59.8062 134.634 48.3665C123.194 36.9268 107.678 30.5 91.5 30.5C75.3218 30.5 59.8062 36.9268 48.3665 48.3665C36.9268 59.8062 30.5 75.3218 30.5 91.5Z" fill="#BC0000"/>
</svg>
